<mxfile host="app.diagrams.net" agent="Mozilla/5.0 (Windows NT 10.0; Win64; x64) AppleWebKit/537.36 (KHTML, like Gecko) Chrome/129.0.0.0 Safari/537.36" version="24.7.17">
  <diagram name="Page-1" id="gafW1Cdv1nZPGVfxVikd">
    <mxGraphModel dx="1434" dy="1838" grid="1" gridSize="10" guides="1" tooltips="1" connect="1" arrows="1" fold="1" page="1" pageScale="1" pageWidth="850" pageHeight="1100" math="0" shadow="0">
      <root>
        <mxCell id="0" />
        <mxCell id="1" parent="0" />
        <mxCell id="crmYViip1QcHzVot3IbS-1" value="Workstation 1&lt;div&gt;10.1.1.22&lt;/div&gt;" style="image;points=[];aspect=fixed;html=1;align=center;shadow=0;dashed=0;image=img/lib/allied_telesis/computer_and_terminals/Personal_Computer_with_Server.svg;" vertex="1" parent="1">
          <mxGeometry x="50" y="630" width="62.400000000000006" height="62.400000000000006" as="geometry" />
        </mxCell>
        <mxCell id="crmYViip1QcHzVot3IbS-3" style="edgeStyle=orthogonalEdgeStyle;rounded=0;orthogonalLoop=1;jettySize=auto;html=1;exitX=1;exitY=0.5;exitDx=0;exitDy=0;fillColor=#e51400;strokeColor=#B20000;" edge="1" parent="1" source="crmYViip1QcHzVot3IbS-10" target="crmYViip1QcHzVot3IbS-5">
          <mxGeometry relative="1" as="geometry" />
        </mxCell>
        <mxCell id="crmYViip1QcHzVot3IbS-11" value="" style="edgeStyle=orthogonalEdgeStyle;rounded=0;orthogonalLoop=1;jettySize=auto;html=1;" edge="1" parent="1" source="crmYViip1QcHzVot3IbS-4" target="crmYViip1QcHzVot3IbS-1">
          <mxGeometry relative="1" as="geometry" />
        </mxCell>
        <mxCell id="crmYViip1QcHzVot3IbS-12" value="" style="edgeStyle=orthogonalEdgeStyle;rounded=0;orthogonalLoop=1;jettySize=auto;html=1;fillColor=#b1ddf0;strokeColor=#10739e;" edge="1" parent="1" source="crmYViip1QcHzVot3IbS-4" target="crmYViip1QcHzVot3IbS-1">
          <mxGeometry relative="1" as="geometry" />
        </mxCell>
        <mxCell id="crmYViip1QcHzVot3IbS-4" value="OFFICE 1 - NAT Router&lt;div&gt;Public IP 24.12.12.45&lt;/div&gt;&lt;div&gt;LAN IP: 10.1.1.1&lt;/div&gt;" style="image;html=1;image=img/lib/clip_art/networking/Wireless_Router_N_128x128.png" vertex="1" parent="1">
          <mxGeometry x="60" y="450" width="80" height="80" as="geometry" />
        </mxCell>
        <mxCell id="crmYViip1QcHzVot3IbS-5" value="&lt;b&gt;&lt;font style=&quot;font-size: 24px;&quot;&gt;Internet&lt;/font&gt;&lt;/b&gt;" style="ellipse;shape=cloud;whiteSpace=wrap;html=1;align=center;" vertex="1" parent="1">
          <mxGeometry x="40" y="-10" width="730" height="320" as="geometry" />
        </mxCell>
        <mxCell id="crmYViip1QcHzVot3IbS-7" value="&lt;b&gt;&lt;font style=&quot;font-size: 18px;&quot;&gt;Self Hosted Public IPs Network&lt;/font&gt;&lt;/b&gt;&lt;div&gt;&lt;br&gt;&lt;/div&gt;&lt;div style=&quot;text-align: left;&quot;&gt;- Mixture of on premises servers and cloud servers -&amp;nbsp;&lt;span style=&quot;background-color: initial;&quot;&gt;Keep local servers secure at &quot;home&quot; and put public servers in the Cloud&lt;/span&gt;&lt;/div&gt;&lt;div style=&quot;text-align: left;&quot;&gt;- Static IPs for servers and workstations&lt;/div&gt;&lt;div style=&quot;text-align: left;&quot;&gt;- Segment network up to keep things isolated&lt;/div&gt;&lt;div style=&quot;text-align: left;&quot;&gt;- Much more complicated&lt;/div&gt;&lt;div style=&quot;text-align: left;&quot;&gt;&lt;span style=&quot;background-color: initial;&quot;&gt;- Use routing, firewalls, vlans, VPNs etc. to control traffic&lt;br&gt;&lt;/span&gt;&lt;/div&gt;" style="rounded=1;whiteSpace=wrap;html=1;spacingLeft=4;spacingRight=4;horizontal=1;verticalAlign=top;labelBackgroundColor=none;fillColor=#f5f5f5;fontColor=#333333;strokeColor=#666666;" vertex="1" parent="1">
          <mxGeometry x="10" y="30" width="290" height="240" as="geometry" />
        </mxCell>
        <mxCell id="crmYViip1QcHzVot3IbS-8" value="File Server&lt;div&gt;24.12.12.48&lt;/div&gt;" style="image;points=[];aspect=fixed;html=1;align=center;shadow=0;dashed=0;image=img/lib/allied_telesis/computer_and_terminals/Server_Desktop.svg;" vertex="1" parent="1">
          <mxGeometry x="420" y="523" width="42.599999999999994" height="54" as="geometry" />
        </mxCell>
        <mxCell id="crmYViip1QcHzVot3IbS-9" value="Web Server&lt;div&gt;24.18.18.11&lt;/div&gt;" style="image;points=[];aspect=fixed;html=1;align=center;shadow=0;dashed=0;image=img/lib/allied_telesis/computer_and_terminals/Server_Desktop.svg;" vertex="1" parent="1">
          <mxGeometry x="462.5999999999999" y="170" width="42.599999999999994" height="54" as="geometry" />
        </mxCell>
        <mxCell id="crmYViip1QcHzVot3IbS-13" style="edgeStyle=orthogonalEdgeStyle;rounded=0;orthogonalLoop=1;jettySize=auto;html=1;exitX=0;exitY=1;exitDx=0;exitDy=0;" edge="1" parent="1" source="crmYViip1QcHzVot3IbS-10">
          <mxGeometry relative="1" as="geometry">
            <mxPoint x="80" y="440" as="targetPoint" />
          </mxGeometry>
        </mxCell>
        <mxCell id="crmYViip1QcHzVot3IbS-15" style="edgeStyle=orthogonalEdgeStyle;rounded=0;orthogonalLoop=1;jettySize=auto;html=1;exitX=1;exitY=1;exitDx=0;exitDy=0;entryX=0.163;entryY=0.013;entryDx=0;entryDy=0;entryPerimeter=0;fillColor=#fad7ac;strokeColor=#b46504;" edge="1" parent="1" source="crmYViip1QcHzVot3IbS-10" target="crmYViip1QcHzVot3IbS-14">
          <mxGeometry relative="1" as="geometry">
            <mxPoint x="290" y="420" as="targetPoint" />
          </mxGeometry>
        </mxCell>
        <mxCell id="crmYViip1QcHzVot3IbS-10" value="Master Router&lt;div&gt;IP: 24.12.12.44&lt;/div&gt;" style="image;html=1;image=img/lib/clip_art/networking/Wireless_Router_N_128x128.png" vertex="1" parent="1">
          <mxGeometry x="107.4" y="290" width="80" height="80" as="geometry" />
        </mxCell>
        <mxCell id="crmYViip1QcHzVot3IbS-14" value="OFFICE 1 - DMZ Router&lt;div&gt;Public IP: 24.12.12.46&lt;/div&gt;" style="image;html=1;image=img/lib/clip_art/networking/Wireless_Router_N_128x128.png" vertex="1" parent="1">
          <mxGeometry x="300" y="390" width="80" height="80" as="geometry" />
        </mxCell>
        <mxCell id="crmYViip1QcHzVot3IbS-16" style="edgeStyle=orthogonalEdgeStyle;rounded=0;orthogonalLoop=1;jettySize=auto;html=1;exitX=1;exitY=0.25;exitDx=0;exitDy=0;fillColor=#fad7ac;strokeColor=#b46504;" edge="1" parent="1" source="crmYViip1QcHzVot3IbS-14">
          <mxGeometry relative="1" as="geometry">
            <mxPoint x="440" y="520" as="targetPoint" />
          </mxGeometry>
        </mxCell>
        <mxCell id="crmYViip1QcHzVot3IbS-18" value="Payroll File Server&lt;div&gt;10.1.1.5&lt;/div&gt;" style="image;points=[];aspect=fixed;html=1;align=center;shadow=0;dashed=0;image=img/lib/allied_telesis/computer_and_terminals/Server_Desktop.svg;" vertex="1" parent="1">
          <mxGeometry x="179.9999999999999" y="600" width="42.599999999999994" height="54" as="geometry" />
        </mxCell>
        <mxCell id="crmYViip1QcHzVot3IbS-19" style="edgeStyle=orthogonalEdgeStyle;rounded=0;orthogonalLoop=1;jettySize=auto;html=1;entryX=0.516;entryY=-0.056;entryDx=0;entryDy=0;entryPerimeter=0;fillColor=#b1ddf0;strokeColor=#10739e;" edge="1" parent="1" source="crmYViip1QcHzVot3IbS-4" target="crmYViip1QcHzVot3IbS-18">
          <mxGeometry relative="1" as="geometry" />
        </mxCell>
        <mxCell id="crmYViip1QcHzVot3IbS-21" style="edgeStyle=orthogonalEdgeStyle;rounded=0;orthogonalLoop=1;jettySize=auto;html=1;exitX=0;exitY=0.5;exitDx=0;exitDy=0;fillColor=#e3c800;strokeColor=#B09500;" edge="1" parent="1" source="crmYViip1QcHzVot3IbS-20">
          <mxGeometry relative="1" as="geometry">
            <mxPoint x="200" y="350" as="targetPoint" />
          </mxGeometry>
        </mxCell>
        <mxCell id="crmYViip1QcHzVot3IbS-23" value="VPN Link to OFFICE 1" style="edgeLabel;html=1;align=center;verticalAlign=middle;resizable=0;points=[];" vertex="1" connectable="0" parent="crmYViip1QcHzVot3IbS-21">
          <mxGeometry x="-0.1669" y="2" relative="1" as="geometry">
            <mxPoint as="offset" />
          </mxGeometry>
        </mxCell>
        <mxCell id="crmYViip1QcHzVot3IbS-20" value="Office 2 - NAT&lt;div&gt;Public IP: 24.12.13.3&lt;/div&gt;&lt;div&gt;LAN IP: 10.1.2.1&lt;/div&gt;" style="image;html=1;image=img/lib/clip_art/networking/Wireless_Router_N_128x128.png" vertex="1" parent="1">
          <mxGeometry x="610" y="310" width="80" height="80" as="geometry" />
        </mxCell>
        <mxCell id="crmYViip1QcHzVot3IbS-22" style="edgeStyle=orthogonalEdgeStyle;rounded=0;orthogonalLoop=1;jettySize=auto;html=1;exitX=0;exitY=0;exitDx=0;exitDy=0;entryX=0.792;entryY=0.806;entryDx=0;entryDy=0;entryPerimeter=0;fillColor=#a20025;strokeColor=#6F0000;" edge="1" parent="1" source="crmYViip1QcHzVot3IbS-20" target="crmYViip1QcHzVot3IbS-5">
          <mxGeometry relative="1" as="geometry" />
        </mxCell>
        <mxCell id="crmYViip1QcHzVot3IbS-24" value="Office 2 - Bobs Computer&lt;div&gt;IP 10.1.2.33&lt;/div&gt;" style="image;points=[];aspect=fixed;html=1;align=center;shadow=0;dashed=0;image=img/lib/allied_telesis/computer_and_terminals/Personal_Computer_with_Server.svg;" vertex="1" parent="1">
          <mxGeometry x="720" y="467.6" width="62.400000000000006" height="62.400000000000006" as="geometry" />
        </mxCell>
        <mxCell id="crmYViip1QcHzVot3IbS-25" style="edgeStyle=orthogonalEdgeStyle;rounded=0;orthogonalLoop=1;jettySize=auto;html=1;exitX=1;exitY=0.5;exitDx=0;exitDy=0;entryX=0.497;entryY=-0.058;entryDx=0;entryDy=0;entryPerimeter=0;fillColor=#b1ddf0;strokeColor=#10739e;" edge="1" parent="1" source="crmYViip1QcHzVot3IbS-20" target="crmYViip1QcHzVot3IbS-24">
          <mxGeometry relative="1" as="geometry" />
        </mxCell>
      </root>
    </mxGraphModel>
  </diagram>
</mxfile>
